<?xml version="1.0" encoding="UTF-8" standalone="no"?>
<svg
   width="424.29"
   height="178.00"
   version="1.1"
   id="svg12"
   sodipodi:docname="output.svg"
   xmlns:inkscape="http://www.inkscape.org/namespaces/inkscape"
   xmlns:sodipodi="http://sodipodi.sourceforge.net/DTD/sodipodi-0.dtd"
   xmlns="http://www.w3.org/2000/svg"
   xmlns:svg="http://www.w3.org/2000/svg">
  <defs
     id="defs12" />
  <sodipodi:namedview
     id="namedview12"
     pagecolor="#ffffff"
     bordercolor="#000000"
     borderopacity="0.25"
     inkscape:showpageshadow="2"
     inkscape:pageopacity="0.0"
     inkscape:pagecheckerboard="0"
     inkscape:deskcolor="#d1d1d1" />
  <rect
     width="424.29"
     height="178.00"
     fill="#1e1e2e"
     x="0.00px"
     y="0.00px"
     id="rect1" />
  <g
     font-family="JetBrainsMono Nerd Font Mono"
     font-size="12.00px"
     fill="#cdd6f4"
     clip-path="url(#terminalMask)"
     id="g12">
    <g
       id="text3"
       aria-label="$ npm install">
      <path
         d="m 23.3,36.080002 v -1.572 q -1.128,-0.096 -1.776,-0.72 -0.636,-0.636 -0.66,-1.668 h 1.08 q 0,0.588 0.348,0.96 0.36,0.372 1.008,0.456 v -3.144 l -0.324,-0.096 q -0.9,-0.276 -1.392,-0.924 -0.48,-0.648 -0.48,-1.524 0,-0.96 0.588,-1.584 0.6,-0.624 1.608,-0.72 v -1.584 h 0.72 v 1.572 q 0.996,0.096 1.596,0.72 0.6,0.624 0.612,1.608 h -1.08 q 0,-0.564 -0.3,-0.912 -0.288,-0.36 -0.828,-0.444 v 2.976 l 0.48,0.156 q 0.876,0.276 1.356,0.936 0.48,0.66 0.48,1.548 0,0.984 -0.636,1.632 -0.624,0.648 -1.68,0.756 v 1.572 z m -1.116,-8.328 q 0,0.54 0.288,0.936 0.288,0.396 0.828,0.564 v -2.748 q -0.528,0.084 -0.828,0.408 -0.288,0.324 -0.288,0.84 z m 1.836,5.784 q 0.588,-0.096 0.912,-0.456 0.324,-0.36 0.324,-0.936 0,-0.528 -0.288,-0.912 -0.276,-0.396 -0.804,-0.564 l -0.144,-0.048 z"
         id="path12" />
      <path
         style="fill:#a1b56c"
         d="m 35.504009,34.400002 v -6.6 h 1.08 v 1.26 h 0.012 q 0.084,-0.66 0.54,-1.02 0.456,-0.36 1.212,-0.36 0.996,0 1.584,0.612 0.588,0.612 0.588,1.668 v 4.44 h -1.08 v -4.248 q 0,-0.756 -0.384,-1.152 -0.372,-0.408 -1.02,-0.408 -0.672,0 -1.068,0.42 -0.384,0.42 -0.384,1.188 v 4.2 z m 7.200005,2.16 v -8.76 h 1.08 v 1.26 h 0.012 q 0.084,-0.648 0.564,-1.008 0.48,-0.372 1.224,-0.372 0.996,0 1.584,0.66 0.588,0.648 0.588,1.788 v 1.932 q 0,1.14 -0.588,1.8 -0.588,0.66 -1.584,0.66 -0.744,0 -1.224,-0.372 -0.48,-0.372 -0.564,-1.008 h -0.036 l 0.024,1.5 v 1.92 z m 2.52,-2.976 q 0.684,0 1.068,-0.36 0.384,-0.36 0.384,-1.164 v -1.92 q 0,-0.816 -0.384,-1.164 -0.384,-0.36 -1.068,-0.36 -0.66,0 -1.056,0.42 -0.384,0.42 -0.384,1.164 v 1.8 q 0,0.744 0.384,1.164 0.396,0.42 1.056,0.42 z m 4.296004,0.816 v -6.6 h 0.936 v 0.876 h 0.024 q 0.06,-0.444 0.348,-0.72 0.3,-0.276 0.756,-0.276 0.432,0 0.732,0.252 0.3,0.252 0.432,0.684 h 0.012 q 0.084,-0.432 0.372,-0.684 0.3,-0.252 0.756,-0.252 0.636,0 1.008,0.48 0.384,0.468 0.384,1.224 v 5.016 h -1.008 v -5.028 q 0,-0.396 -0.192,-0.624 -0.192,-0.24 -0.528,-0.24 -0.324,0 -0.516,0.228 -0.192,0.228 -0.192,0.624 v 5.04 h -0.888 v -5.028 q 0,-0.396 -0.192,-0.624 -0.192,-0.24 -0.516,-0.24 -0.336,0 -0.528,0.228 -0.192,0.228 -0.192,0.624 v 5.04 z"
         id="path13" />
      <path
         style="fill:#d8d8d8"
         d="m 64.220027,34.400002 v -0.984 h 2.34 v -4.632 h -2.1 v -0.984 h 3.18 v 5.616 h 2.22 v 0.984 z m 2.76,-7.788 q -0.396,0 -0.624,-0.204 -0.228,-0.204 -0.228,-0.552 0,-0.36 0.228,-0.564 0.228,-0.216 0.624,-0.216 0.396,0 0.624,0.216 0.228,0.204 0.228,0.564 0,0.348 -0.228,0.552 -0.228,0.204 -0.624,0.204 z m 4.524005,7.788 v -6.6 h 1.08 v 1.26 h 0.012 q 0.084,-0.66 0.54,-1.02 0.456,-0.36 1.212,-0.36 0.996,0 1.584,0.612 0.588,0.612 0.588,1.668 v 4.44 h -1.08 v -4.248 q 0,-0.756 -0.384,-1.152 -0.372,-0.408 -1.02,-0.408 -0.672,0 -1.068,0.42 -0.384,0.42 -0.384,1.188 v 4.2 z m 9.432005,0.096 q -1.104,0 -1.716,-0.492 -0.6,-0.504 -0.6,-1.416 h 1.08 q 0,0.456 0.324,0.72 0.324,0.252 0.912,0.252 h 0.528 q 0.6,0 0.924,-0.264 0.336,-0.264 0.336,-0.744 0,-0.852 -0.78,-0.96 l -1.824,-0.264 q -0.672,-0.096 -1.044,-0.552 -0.372,-0.468 -0.372,-1.224 0,-0.864 0.588,-1.356 0.6,-0.492 1.644,-0.492 h 0.528 q 0.96,0 1.56,0.48 0.612,0.468 0.66,1.236 h -1.092 q -0.024,-0.348 -0.336,-0.576 -0.3,-0.228 -0.792,-0.228 h -0.528 q -0.552,0 -0.864,0.252 -0.312,0.252 -0.312,0.684 0,0.696 0.636,0.792 l 1.704,0.24 q 1.68,0.24 1.68,1.968 0,0.924 -0.612,1.44 -0.6,0.504 -1.704,0.504 z m 8.124004,-0.096 q -0.816,0 -1.308,-0.468 -0.492,-0.48 -0.492,-1.272 v -3.876 h -1.896 v -0.984 h 1.896 v -1.86 h 1.08 v 1.86 h 2.7 v 0.984 h -2.7 v 3.876 q 0,0.336 0.192,0.552 0.204,0.204 0.528,0.204 h 1.92 v 0.984 z m 5.964005,0.12 q -1.02,0 -1.62,-0.564 -0.6,-0.576 -0.6,-1.5 0,-0.612 0.276,-1.068 0.276,-0.456 0.768,-0.708 0.492,-0.264 1.128,-0.264 h 2.04 v -0.516 q 0,-1.284 -1.404,-1.284 -0.624,0 -1.008,0.228 -0.384,0.228 -0.408,0.636 h -1.08 q 0.06,-0.78 0.72,-1.284 0.672,-0.516 1.776,-0.516 1.2,0 1.836,0.576 0.648,0.576 0.648,1.608 v 4.536 h -1.068 v -1.2 h -0.024 q -0.096,0.612 -0.612,0.972 -0.516,0.348 -1.368,0.348 z m 0.264,-0.912 q 0.792,0 1.26,-0.384 0.468,-0.384 0.468,-1.044 v -0.924 h -1.92 q -0.528,0 -0.864,0.324 -0.324,0.312 -0.324,0.84 0,0.552 0.36,0.876 0.372,0.312 1.02,0.312 z m 8.472004,0.792 q -0.876,0 -1.404,-0.504 -0.516,-0.516 -0.516,-1.356 v -5.916 h -2.28 v -0.984 h 3.36 v 6.9 q 0,0.408 0.228,0.648 0.228,0.228 0.612,0.228 h 2.04 v 0.984 z m 7.2,0 q -0.876,0 -1.404,-0.504 -0.516,-0.516 -0.516,-1.356 v -5.916 h -2.28 v -0.984 h 3.36 v 6.9 q 0,0.408 0.228,0.648 0.228,0.228 0.612,0.228 h 2.04 v 0.984 z"
         id="path14" />
    </g>
    <text
       x="20"
       y="48.799999"
       xml:space="preserve"
       id="text4" />
    <path
       d="m 23.024,63.320001 q -1.02,0 -1.62,-0.564 -0.6,-0.576 -0.6,-1.5 0,-0.612 0.276,-1.068 0.276,-0.456 0.768,-0.708 0.492,-0.264 1.128,-0.264 h 2.04 v -0.516 q 0,-1.284 -1.404,-1.284 -0.624,0 -1.008,0.228 -0.384,0.228 -0.408,0.636 h -1.08 q 0.06,-0.78 0.72,-1.284 0.672,-0.516 1.776,-0.516 1.2,0 1.836,0.576 0.648,0.576 0.648,1.608 v 4.536 h -1.068 v -1.2 h -0.024 q -0.096,0.612 -0.612,0.972 -0.516,0.348 -1.368,0.348 z m 0.264,-0.912 q 0.792,0 1.26,-0.384 0.468,-0.384 0.468,-1.044 v -0.924 h -1.92 q -0.528,0 -0.864,0.324 -0.324,0.312 -0.324,0.84 0,0.552 0.36,0.876 0.372,0.312 1.02,0.312 z m 7.128005,0.912 q -0.984,0 -1.584,-0.66 -0.588,-0.66 -0.588,-1.788 v -1.932 q 0,-1.14 0.588,-1.8 0.588,-0.66 1.584,-0.66 0.744,0 1.224,0.372 0.492,0.372 0.588,1.008 h 0.012 l -0.024,-1.5 v -1.92 h 1.08 v 8.76 h -1.08 v -1.26 h -0.012 q -0.084,0.648 -0.564,1.02 -0.48,0.36 -1.224,0.36 z m 0.36,-0.936 q 0.672,0 1.056,-0.42 0.384,-0.42 0.384,-1.164 v -1.8 q 0,-0.744 -0.384,-1.164 -0.384,-0.42 -1.056,-0.42 -0.684,0 -1.068,0.36 -0.384,0.348 -0.384,1.164 v 1.92 q 0,0.804 0.384,1.164 0.384,0.36 1.068,0.36 z m 6.840004,0.936 q -0.984,0 -1.584,-0.66 -0.588,-0.66 -0.588,-1.788 v -1.932 q 0,-1.14 0.588,-1.8 0.588,-0.66 1.584,-0.66 0.744,0 1.224,0.372 0.492,0.372 0.588,1.008 h 0.012 l -0.024,-1.5 v -1.92 h 1.08 v 8.76 h -1.08 v -1.26 h -0.012 q -0.084,0.648 -0.564,1.02 -0.48,0.36 -1.224,0.36 z m 0.36,-0.936 q 0.672,0 1.056,-0.42 0.384,-0.42 0.384,-1.164 v -1.8 q 0,-0.744 -0.384,-1.164 -0.384,-0.42 -1.056,-0.42 -0.684,0 -1.068,0.36 -0.384,0.348 -0.384,1.164 v 1.92 q 0,0.804 0.384,1.164 0.384,0.36 1.068,0.36 z m 7.224005,0.936 q -1.164,0 -1.884,-0.696 -0.708,-0.708 -0.708,-1.944 v -1.56 q 0,-1.236 0.708,-1.932 0.72,-0.708 1.884,-0.708 0.78,0 1.356,0.312 0.588,0.312 0.912,0.876 0.324,0.564 0.324,1.332 v 1.176 h -4.128 v 0.624 q 0,0.732 0.42,1.164 0.42,0.42 1.116,0.42 0.6,0 0.984,-0.228 0.396,-0.24 0.48,-0.636 h 1.08 q -0.108,0.828 -0.804,1.32 -0.696,0.48 -1.74,0.48 z m -1.536,-3.984 h 3.072 v -0.336 q 0,-0.78 -0.408,-1.2 -0.396,-0.432 -1.128,-0.432 -0.732,0 -1.14,0.432 -0.396,0.42 -0.396,1.2 z m 8.352004,3.984 q -0.984,0 -1.584,-0.66 -0.588,-0.66 -0.588,-1.788 v -1.932 q 0,-1.14 0.588,-1.8 0.588,-0.66 1.584,-0.66 0.744,0 1.224,0.372 0.492,0.372 0.588,1.008 h 0.012 l -0.024,-1.5 v -1.92 h 1.08 v 8.76 h -1.08 v -1.26 h -0.012 q -0.084,0.648 -0.564,1.02 -0.48,0.36 -1.224,0.36 z m 0.36,-0.936 q 0.672,0 1.056,-0.42 0.384,-0.42 0.384,-1.164 v -1.8 q 0,-0.744 -0.384,-1.164 -0.384,-0.42 -1.056,-0.42 -0.684,0 -1.068,0.36 -0.384,0.348 -0.384,1.164 v 1.92 q 0,0.804 0.384,1.164 0.384,0.36 1.068,0.36 z m 14.292009,0.936 q -1.212,0 -1.92,-0.672 -0.708,-0.684 -0.708,-1.848 h 1.08 q 0,0.72 0.42,1.14 0.42,0.42 1.14,0.42 0.72,0 1.14,-0.42 0.42,-0.42 0.42,-1.14 v -0.6 q 0,-0.72 -0.42,-1.14 -0.42,-0.42 -1.14,-0.42 h -0.948 v -0.936 l 2.148,-2.28 h -3.6 v -0.984 h 4.824 v 1.008 l -2.112,2.244 q 1.08,0.084 1.704,0.756 0.624,0.66 0.624,1.752 v 0.6 q 0,1.164 -0.72,1.848 -0.708,0.672 -1.932,0.672 z m 6.012005,-0.12 3.12,-7.776 h -3.336 v 1.416 h -1.08 v -2.4 h 5.568 v 1.008 l -3.096,7.752 z m 8.532005,0.12 q -0.84,0 -1.488,-0.348 -0.636,-0.36 -0.996,-0.984 -0.36,-0.636 -0.36,-1.464 0,-0.576 0.216,-1.176 0.216,-0.612 0.588,-1.272 l 2.028,-3.636 h 1.2 l -2.16,3.756 0.036,0.024 q 0.156,-0.204 0.468,-0.312 0.312,-0.108 0.684,-0.108 0.78,0 1.356,0.348 0.588,0.336 0.912,0.936 0.336,0.6 0.336,1.392 0,0.84 -0.36,1.488 -0.36,0.636 -0.996,0.996 -0.624,0.36 -1.464,0.36 z m -0.012,-0.96 q 0.78,0 1.26,-0.516 0.492,-0.516 0.492,-1.344 0,-0.828 -0.492,-1.344 -0.48,-0.516 -1.26,-0.516 -0.78,0 -1.272,0.516 -0.48,0.516 -0.48,1.344 0,0.828 0.48,1.344 0.492,0.516 1.272,0.516 z m 11.904009,3 v -8.76 h 1.08 v 1.26 h 0.012 q 0.084,-0.648 0.564,-1.008 0.48,-0.372 1.224,-0.372 0.996,0 1.584,0.66 0.588,0.648 0.588,1.788 v 1.932 q 0,1.14 -0.588,1.8 -0.588,0.66 -1.584,0.66 -0.744,0 -1.224,-0.372 -0.48,-0.372 -0.564,-1.008 h -0.036 l 0.024,1.5 v 1.92 z m 2.52,-2.976 q 0.684,0 1.068,-0.36 0.384,-0.36 0.384,-1.164 v -1.92 q 0,-0.816 -0.384,-1.164 -0.384,-0.36 -1.068,-0.36 -0.66,0 -1.056,0.42 -0.384,0.42 -0.384,1.164 v 1.8 q 0,0.744 0.384,1.164 0.396,0.42 1.056,0.42 z m 6.600004,0.936 q -1.02,0 -1.62,-0.564 -0.6,-0.576 -0.6,-1.5 0,-0.612 0.276,-1.068 0.276,-0.456 0.768,-0.708 0.492,-0.264 1.128,-0.264 h 2.04 v -0.516 q 0,-1.284 -1.404,-1.284 -0.624,0 -1.008,0.228 -0.384,0.228 -0.408,0.636 h -1.08 q 0.06,-0.78 0.72,-1.284 0.672,-0.516 1.776,-0.516 1.2,0 1.836,0.576 0.648,0.576 0.648,1.608 v 4.536 h -1.068 v -1.2 h -0.024 q -0.096,0.612 -0.612,0.972 -0.516,0.348 -1.368,0.348 z m 0.264,-0.912 q 0.792,0 1.26,-0.384 0.468,-0.384 0.468,-1.044 v -0.924 h -1.92 q -0.528,0 -0.864,0.324 -0.324,0.312 -0.324,0.84 0,0.552 0.36,0.876 0.372,0.312 1.02,0.312 z m 7.608,0.912 q -1.2,0 -1.92,-0.672 -0.72,-0.672 -0.72,-1.848 v -1.8 q 0,-1.176 0.72,-1.848 0.72,-0.672 1.92,-0.672 1.14,0 1.836,0.612 0.708,0.612 0.744,1.668 h -1.08 q -0.036,-0.636 -0.432,-0.972 -0.396,-0.348 -1.068,-0.348 -0.708,0 -1.14,0.408 -0.42,0.396 -0.42,1.14 v 1.812 q 0,0.744 0.42,1.152 0.432,0.408 1.14,0.408 0.672,0 1.068,-0.348 0.396,-0.348 0.432,-0.972 h 1.08 q -0.036,1.056 -0.744,1.668 -0.696,0.612 -1.836,0.612 z m 4.66801,-0.12 v -8.76 h 1.08 v 4.884 h 1.26 l 1.848,-2.724 h 1.236 l -2.124,3.144 2.244,3.456 h -1.26 l -1.92,-2.94 h -1.284 v 2.94 z m 9.06,0.12 q -1.02,0 -1.62,-0.564 -0.6,-0.576 -0.6,-1.5 0,-0.612 0.276,-1.068 0.276,-0.456 0.768,-0.708 0.492,-0.264 1.128,-0.264 h 2.04 v -0.516 q 0,-1.284 -1.404,-1.284 -0.624,0 -1.008,0.228 -0.384,0.228 -0.408,0.636 h -1.08 q 0.06,-0.78 0.72,-1.284 0.672,-0.516 1.776,-0.516 1.2,0 1.836,0.576 0.648,0.576 0.648,1.608 v 4.536 h -1.068 v -1.2 h -0.024 q -0.096,0.612 -0.612,0.972 -0.516,0.348 -1.368,0.348 z m 0.264,-0.912 q 0.792,0 1.26,-0.384 0.468,-0.384 0.468,-1.044 v -0.924 h -1.92 q -0.528,0 -0.864,0.324 -0.324,0.312 -0.324,0.84 0,0.552 0.36,0.876 0.372,0.312 1.02,0.312 z m 5.84401,2.952 v -0.984 h 1.86 q 0.564,0 0.888,-0.324 0.324,-0.312 0.324,-0.852 v -0.6 l 0.024,-1.08 h -0.036 q -0.096,0.588 -0.564,0.912 -0.468,0.312 -1.176,0.312 -1.02,0 -1.608,-0.648 -0.588,-0.648 -0.588,-1.776 v -1.392 q 0,-1.128 0.588,-1.788 0.588,-0.66 1.608,-0.66 0.708,0 1.176,0.336 0.468,0.336 0.564,0.924 h 0.024 v -1.14 h 1.068 v 6.6 q 0,0.996 -0.624,1.572 -0.612,0.588 -1.68,0.588 z m 1.644,-3.516 q 0.672,0 1.056,-0.42 0.384,-0.42 0.384,-1.164 v -1.26 q 0,-0.744 -0.384,-1.164 -0.384,-0.42 -1.056,-0.42 -0.684,0 -1.068,0.396 -0.372,0.396 -0.372,1.068 v 1.5 q 0,0.672 0.372,1.068 0.384,0.396 1.068,0.396 z m 7.224,1.476 q -1.164,0 -1.884,-0.696 -0.708,-0.708 -0.708,-1.944 v -1.56 q 0,-1.236 0.708,-1.932 0.72,-0.708 1.884,-0.708 0.78,0 1.356,0.312 0.588,0.312 0.912,0.876 0.324,0.564 0.324,1.332 v 1.176 h -4.128 v 0.624 q 0,0.732 0.42,1.164 0.42,0.42 1.116,0.42 0.6,0 0.984,-0.228 0.396,-0.24 0.48,-0.636 h 1.08 q -0.108,0.828 -0.804,1.32 -0.696,0.48 -1.74,0.48 z m -1.536,-3.984 h 3.072 v -0.336 q 0,-0.78 -0.408,-1.2 -0.396,-0.432 -1.128,-0.432 -0.732,0 -1.14,0.432 -0.396,0.42 -0.396,1.2 z m 8.47201,3.96 q -1.104,0 -1.716,-0.492 -0.6,-0.504 -0.6,-1.416 h 1.08 q 0,0.456 0.324,0.72 0.324,0.252 0.912,0.252 h 0.528 q 0.6,0 0.924,-0.264 0.336,-0.264 0.336,-0.744 0,-0.852 -0.78,-0.96 l -1.824,-0.264 q -0.672,-0.096 -1.044,-0.552 -0.372,-0.468 -0.372,-1.224 0,-0.864 0.588,-1.356 0.6,-0.492 1.644,-0.492 h 0.528 q 0.96,0 1.56,0.48 0.612,0.468 0.66,1.236 h -1.092 q -0.024,-0.348 -0.336,-0.576 -0.3,-0.228 -0.792,-0.228 h -0.528 q -0.552,0 -0.864,0.252 -0.312,0.252 -0.312,0.684 0,0.696 0.636,0.792 l 1.704,0.24 q 1.68,0.24 1.68,1.968 0,0.924 -0.612,1.44 -0.6,0.504 -1.704,0.504 z m 6.384,1.824 0.66,-3.672 h 1.296 l -0.84,3.672 z m 14.90401,-1.8 q -1.02,0 -1.62,-0.564 -0.6,-0.576 -0.6,-1.5 0,-0.612 0.276,-1.068 0.276,-0.456 0.768,-0.708 0.492,-0.264 1.128,-0.264 h 2.04 v -0.516 q 0,-1.284 -1.404,-1.284 -0.624,0 -1.008,0.228 -0.384,0.228 -0.408,0.636 h -1.08 q 0.06,-0.78 0.72,-1.284 0.672,-0.516 1.776,-0.516 1.2,0 1.836,0.576 0.648,0.576 0.648,1.608 v 4.536 h -1.068 v -1.2 h -0.024 q -0.096,0.612 -0.612,0.972 -0.516,0.348 -1.368,0.348 z m 0.264,-0.912 q 0.792,0 1.26,-0.384 0.468,-0.384 0.468,-1.044 v -0.924 h -1.92 q -0.528,0 -0.864,0.324 -0.324,0.312 -0.324,0.84 0,0.552 0.36,0.876 0.372,0.312 1.02,0.312 z m 5.01601,0.792 v -6.6 h 1.08 v 1.26 h 0.012 q 0.084,-0.66 0.54,-1.02 0.456,-0.36 1.212,-0.36 0.996,0 1.584,0.612 0.588,0.612 0.588,1.668 v 4.44 h -1.08 v -4.248 q 0,-0.756 -0.384,-1.152 -0.372,-0.408 -1.02,-0.408 -0.672,0 -1.068,0.42 -0.384,0.42 -0.384,1.188 v 4.2 z m 9.312,0.12 q -0.984,0 -1.584,-0.66 -0.588,-0.66 -0.588,-1.788 v -1.932 q 0,-1.14 0.588,-1.8 0.588,-0.66 1.584,-0.66 0.744,0 1.224,0.372 0.492,0.372 0.588,1.008 h 0.012 l -0.024,-1.5 v -1.92 h 1.08 v 8.76 h -1.08 v -1.26 h -0.012 q -0.084,0.648 -0.564,1.02 -0.48,0.36 -1.224,0.36 z m 0.36,-0.936 q 0.672,0 1.056,-0.42 0.384,-0.42 0.384,-1.164 v -1.8 q 0,-0.744 -0.384,-1.164 -0.384,-0.42 -1.056,-0.42 -0.684,0 -1.068,0.36 -0.384,0.348 -0.384,1.164 v 1.92 q 0,0.804 0.384,1.164 0.384,0.36 1.068,0.36 z m 13.84801,0.936 q -1.02,0 -1.62,-0.564 -0.6,-0.576 -0.6,-1.5 0,-0.612 0.276,-1.068 0.276,-0.456 0.768,-0.708 0.492,-0.264 1.128,-0.264 h 2.04 v -0.516 q 0,-1.284 -1.404,-1.284 -0.624,0 -1.008,0.228 -0.384,0.228 -0.408,0.636 h -1.08 q 0.06,-0.78 0.72,-1.284 0.672,-0.516 1.776,-0.516 1.2,0 1.836,0.576 0.648,0.576 0.648,1.608 v 4.536 h -1.068 v -1.2 h -0.024 q -0.096,0.612 -0.612,0.972 -0.516,0.348 -1.368,0.348 z m 0.264,-0.912 q 0.792,0 1.26,-0.384 0.468,-0.384 0.468,-1.044 v -0.924 h -1.92 q -0.528,0 -0.864,0.324 -0.324,0.312 -0.324,0.84 0,0.552 0.36,0.876 0.372,0.312 1.02,0.312 z m 7.50001,0.912 q -1.14,0 -1.824,-0.672 -0.684,-0.684 -0.684,-1.848 v -4.2 h 1.08 v 4.2 q 0,0.72 0.384,1.152 0.384,0.42 1.044,0.42 0.672,0 1.056,-0.42 0.396,-0.432 0.396,-1.152 v -4.2 h 1.08 v 4.2 q 0,1.164 -0.696,1.848 -0.696,0.672 -1.836,0.672 z m 6.828,0 q -0.984,0 -1.584,-0.66 -0.588,-0.66 -0.588,-1.788 v -1.932 q 0,-1.14 0.588,-1.8 0.588,-0.66 1.584,-0.66 0.744,0 1.224,0.372 0.492,0.372 0.588,1.008 h 0.012 l -0.024,-1.5 v -1.92 h 1.08 v 8.76 h -1.08 v -1.26 h -0.012 q -0.084,0.648 -0.564,1.02 -0.48,0.36 -1.224,0.36 z m 0.36,-0.936 q 0.672,0 1.056,-0.42 0.384,-0.42 0.384,-1.164 v -1.8 q 0,-0.744 -0.384,-1.164 -0.384,-0.42 -1.056,-0.42 -0.684,0 -1.068,0.36 -0.384,0.348 -0.384,1.164 v 1.92 q 0,0.804 0.384,1.164 0.384,0.36 1.068,0.36 z m 4.644,0.816 v -0.984 h 2.34 v -4.632 h -2.1 v -0.984 h 3.18 v 5.616 h 2.22 v 0.984 z m 2.76,-7.788 q -0.396,0 -0.624,-0.204 -0.228,-0.204 -0.228,-0.552 0,-0.36 0.228,-0.564 0.228,-0.216 0.624,-0.216 0.396,0 0.624,0.216 0.228,0.204 0.228,0.564 0,0.348 -0.228,0.552 -0.228,0.204 -0.624,0.204 z m 7.68001,7.788 q -0.816,0 -1.308,-0.468 -0.492,-0.48 -0.492,-1.272 v -3.876 h -1.896 v -0.984 h 1.896 v -1.86 h 1.08 v 1.86 h 2.7 v 0.984 h -2.7 v 3.876 q 0,0.336 0.192,0.552 0.204,0.204 0.528,0.204 h 1.92 v 0.984 z m 6.54001,0.12 q -1.164,0 -1.884,-0.696 -0.708,-0.708 -0.708,-1.944 v -1.56 q 0,-1.236 0.708,-1.932 0.72,-0.708 1.884,-0.708 0.78,0 1.356,0.312 0.588,0.312 0.912,0.876 0.324,0.564 0.324,1.332 v 1.176 h -4.128 v 0.624 q 0,0.732 0.42,1.164 0.42,0.42 1.116,0.42 0.6,0 0.984,-0.228 0.396,-0.24 0.48,-0.636 h 1.08 q -0.108,0.828 -0.804,1.32 -0.696,0.48 -1.74,0.48 z m -1.536,-3.984 h 3.072 v -0.336 q 0,-0.78 -0.408,-1.2 -0.396,-0.432 -1.128,-0.432 -0.732,0 -1.14,0.432 -0.396,0.42 -0.396,1.2 z m 8.352,3.984 q -0.984,0 -1.584,-0.66 -0.588,-0.66 -0.588,-1.788 v -1.932 q 0,-1.14 0.588,-1.8 0.588,-0.66 1.584,-0.66 0.744,0 1.224,0.372 0.492,0.372 0.588,1.008 h 0.012 l -0.024,-1.5 v -1.92 h 1.08 v 8.76 h -1.08 v -1.26 h -0.012 q -0.084,0.648 -0.564,1.02 -0.48,0.36 -1.224,0.36 z m 0.36,-0.936 q 0.672,0 1.056,-0.42 0.384,-0.42 0.384,-1.164 v -1.8 q 0,-0.744 -0.384,-1.164 -0.384,-0.42 -1.056,-0.42 -0.684,0 -1.068,0.36 -0.384,0.348 -0.384,1.164 v 1.92 q 0,0.804 0.384,1.164 0.384,0.36 1.068,0.36 z m 14.29201,0.936 q -1.212,0 -1.92,-0.672 -0.708,-0.684 -0.708,-1.848 h 1.08 q 0,0.72 0.42,1.14 0.42,0.42 1.14,0.42 0.72,0 1.14,-0.42 0.42,-0.42 0.42,-1.14 v -0.6 q 0,-0.72 -0.42,-1.14 -0.42,-0.42 -1.14,-0.42 h -0.948 v -0.936 l 2.148,-2.28 h -3.6 v -0.984 h 4.824 v 1.008 l -2.112,2.244 q 1.08,0.084 1.704,0.756 0.624,0.66 0.624,1.752 v 0.6 q 0,1.164 -0.72,1.848 -0.708,0.672 -1.932,0.672 z m 6.01201,-0.12 3.12,-7.776 h -3.336 v 1.416 h -1.08 v -2.4 h 5.568 v 1.008 l -3.096,7.752 z m 7.2,0 3.12,-7.776 h -3.336 v 1.416 h -1.08 v -2.4 h 5.568 v 1.008 l -3.096,7.752 z m 13.224,2.16 v -8.76 h 1.08 v 1.26 h 0.012 q 0.084,-0.648 0.564,-1.008 0.48,-0.372 1.224,-0.372 0.996,0 1.584,0.66 0.588,0.648 0.588,1.788 v 1.932 q 0,1.14 -0.588,1.8 -0.588,0.66 -1.584,0.66 -0.744,0 -1.224,-0.372 -0.48,-0.372 -0.564,-1.008 h -0.036 l 0.024,1.5 v 1.92 z m 2.52,-2.976 q 0.684,0 1.068,-0.36 0.384,-0.36 0.384,-1.164 v -1.92 q 0,-0.816 -0.384,-1.164 -0.384,-0.36 -1.068,-0.36 -0.66,0 -1.056,0.42 -0.384,0.42 -0.384,1.164 v 1.8 q 0,0.744 0.384,1.164 0.396,0.42 1.056,0.42 z m 6.60002,0.936 q -1.02,0 -1.62,-0.564 -0.6,-0.576 -0.6,-1.5 0,-0.612 0.276,-1.068 0.276,-0.456 0.768,-0.708 0.492,-0.264 1.128,-0.264 h 2.04 v -0.516 q 0,-1.284 -1.404,-1.284 -0.624,0 -1.008,0.228 -0.384,0.228 -0.408,0.636 h -1.08 q 0.06,-0.78 0.72,-1.284 0.672,-0.516 1.776,-0.516 1.2,0 1.836,0.576 0.648,0.576 0.648,1.608 v 4.536 h -1.068 v -1.2 h -0.024 q -0.096,0.612 -0.612,0.972 -0.516,0.348 -1.368,0.348 z m 0.264,-0.912 q 0.792,0 1.26,-0.384 0.468,-0.384 0.468,-1.044 v -0.924 h -1.92 q -0.528,0 -0.864,0.324 -0.324,0.312 -0.324,0.84 0,0.552 0.36,0.876 0.372,0.312 1.02,0.312 z m 7.60798,0.912 q -1.2,0 -1.92,-0.672 -0.72,-0.672 -0.72,-1.848 v -1.8 q 0,-1.176 0.72,-1.848 0.72,-0.672 1.92,-0.672 1.14,0 1.836,0.612 0.708,0.612 0.744,1.668 h -1.08 q -0.036,-0.636 -0.432,-0.972 -0.396,-0.348 -1.068,-0.348 -0.708,0 -1.14,0.408 -0.42,0.396 -0.42,1.14 v 1.812 q 0,0.744 0.42,1.152 0.432,0.408 1.14,0.408 0.672,0 1.068,-0.348 0.396,-0.348 0.432,-0.972 h 1.08 q -0.036,1.056 -0.744,1.668 -0.696,0.612 -1.836,0.612 z m 4.66801,-0.12 v -8.76 h 1.08 v 4.884 h 1.26 l 1.848,-2.724 h 1.236 l -2.124,3.144 2.244,3.456 h -1.26 l -1.92,-2.94 h -1.284 v 2.94 z m 9.06001,0.12 q -1.02,0 -1.62,-0.564 -0.6,-0.576 -0.6,-1.5 0,-0.612 0.276,-1.068 0.276,-0.456 0.768,-0.708 0.492,-0.264 1.128,-0.264 h 2.04 v -0.516 q 0,-1.284 -1.404,-1.284 -0.624,0 -1.008,0.228 -0.384,0.228 -0.408,0.636 h -1.08 q 0.06,-0.78 0.72,-1.284 0.672,-0.516 1.776,-0.516 1.2,0 1.836,0.576 0.648,0.576 0.648,1.608 v 4.536 h -1.068 v -1.2 h -0.024 q -0.096,0.612 -0.612,0.972 -0.516,0.348 -1.368,0.348 z m 0.264,-0.912 q 0.792,0 1.26,-0.384 0.468,-0.384 0.468,-1.044 v -0.924 h -1.92 q -0.528,0 -0.864,0.324 -0.324,0.312 -0.324,0.84 0,0.552 0.36,0.876 0.372,0.312 1.02,0.312 z m 5.84402,2.952 v -0.984 h 1.86 q 0.564,0 0.888,-0.324 0.324,-0.312 0.324,-0.852 v -0.6 l 0.024,-1.08 h -0.036 q -0.096,0.588 -0.564,0.912 -0.468,0.312 -1.176,0.312 -1.02,0 -1.608,-0.648 -0.588,-0.648 -0.588,-1.776 v -1.392 q 0,-1.128 0.588,-1.788 0.588,-0.66 1.608,-0.66 0.708,0 1.176,0.336 0.468,0.336 0.564,0.924 h 0.024 v -1.14 h 1.068 v 6.6 q 0,0.996 -0.624,1.572 -0.612,0.588 -1.68,0.588 z m 1.644,-3.516 q 0.672,0 1.056,-0.42 0.384,-0.42 0.384,-1.164 v -1.26 q 0,-0.744 -0.384,-1.164 -0.384,-0.42 -1.056,-0.42 -0.684,0 -1.068,0.396 -0.372,0.396 -0.372,1.068 v 1.5 q 0,0.672 0.372,1.068 0.384,0.396 1.068,0.396 z m 7.22401,1.476 q -1.164,0 -1.884,-0.696 -0.708,-0.708 -0.708,-1.944 v -1.56 q 0,-1.236 0.708,-1.932 0.72,-0.708 1.884,-0.708 0.78,0 1.356,0.312 0.588,0.312 0.912,0.876 0.324,0.564 0.324,1.332 v 1.176 h -4.128 v 0.624 q 0,0.732 0.42,1.164 0.42,0.42 1.116,0.42 0.6,0 0.984,-0.228 0.396,-0.24 0.48,-0.636 h 1.08 q -0.108,0.828 -0.804,1.32 -0.696,0.48 -1.74,0.48 z m -1.536,-3.984 h 3.072 v -0.336 q 0,-0.78 -0.408,-1.2 -0.396,-0.432 -1.128,-0.432 -0.732,0 -1.14,0.432 -0.396,0.42 -0.396,1.2 z m 8.47198,3.96 q -1.104,0 -1.716,-0.492 -0.6,-0.504 -0.6,-1.416 h 1.08 q 0,0.456 0.324,0.72 0.324,0.252 0.912,0.252 h 0.528 q 0.6,0 0.924,-0.264 0.336,-0.264 0.336,-0.744 0,-0.852 -0.78,-0.96 l -1.824,-0.264 q -0.672,-0.096 -1.044,-0.552 -0.372,-0.468 -0.372,-1.224 0,-0.864 0.588,-1.356 0.6,-0.492 1.644,-0.492 h 0.528 q 0.96,0 1.56,0.48 0.612,0.468 0.66,1.236 h -1.092 q -0.024,-0.348 -0.336,-0.576 -0.3,-0.228 -0.792,-0.228 h -0.528 q -0.552,0 -0.864,0.252 -0.312,0.252 -0.312,0.684 0,0.696 0.636,0.792 l 1.704,0.24 q 1.68,0.24 1.68,1.968 0,0.924 -0.612,1.44 -0.6,0.504 -1.704,0.504 z m 12.08402,-0.096 v -0.984 h 2.34 v -4.632 h -2.1 v -0.984 h 3.18 v 5.616 h 2.22 v 0.984 z m 2.76,-7.788 q -0.396,0 -0.624,-0.204 -0.228,-0.204 -0.228,-0.552 0,-0.36 0.228,-0.564 0.228,-0.216 0.624,-0.216 0.396,0 0.624,0.216 0.228,0.204 0.228,0.564 0,0.348 -0.228,0.552 -0.228,0.204 -0.624,0.204 z m 4.52399,7.788 v -6.6 h 1.08 v 1.26 h 0.012 q 0.084,-0.66 0.54,-1.02 0.456,-0.36 1.212,-0.36 0.996,0 1.584,0.612 0.588,0.612 0.588,1.668 v 4.44 h -1.08 v -4.248 q 0,-0.756 -0.384,-1.152 -0.372,-0.408 -1.02,-0.408 -0.672,0 -1.068,0.42 -0.384,0.42 -0.384,1.188 v 4.2 z m 15.57602,0 3.12,-7.776 h -3.336 v 1.416 h -1.08 v -2.4 h 5.568 v 1.008 l -3.096,7.752 z m 8.25601,0.096 q -1.104,0 -1.716,-0.492 -0.6,-0.504 -0.6,-1.416 h 1.08 q 0,0.456 0.324,0.72 0.324,0.252 0.912,0.252 h 0.528 q 0.6,0 0.924,-0.264 0.336,-0.264 0.336,-0.744 0,-0.852 -0.78,-0.96 l -1.824,-0.264 q -0.672,-0.096 -1.044,-0.552 -0.372,-0.468 -0.372,-1.224 0,-0.864 0.588,-1.356 0.6,-0.492 1.644,-0.492 h 0.528 q 0.96,0 1.56,0.48 0.612,0.468 0.66,1.236 h -1.092 q -0.024,-0.348 -0.336,-0.576 -0.3,-0.228 -0.792,-0.228 h -0.528 q -0.552,0 -0.864,0.252 -0.312,0.252 -0.312,0.684 0,0.696 0.636,0.792 l 1.704,0.24 q 1.68,0.24 1.68,1.968 0,0.924 -0.612,1.44 -0.6,0.504 -1.704,0.504 z"
       id="text5"
       aria-label="added 376 packages, and audited 377 packages in 7s" />
    <text
       x="20"
       y="77.599998"
       xml:space="preserve"
       id="text6" />
    <path
       d="m 21.08,92 v -0.984 h 2.376 v -6.84 l -2.376,1.776 v -1.236 l 1.98,-1.476 h 1.476 v 7.776 H 26.48 V 92 Z m 10.920005,0 v -1.92 h -3.96 v -1.692 l 3.192,-5.148 h 1.224 l -3.336,5.388 v 0.468 h 2.88 V 86.96 h 1.08 V 92 Z m 3.432004,0 v -0.996 l 2.916,-3.12 q 0.636,-0.672 0.9,-1.2 0.264,-0.528 0.264,-1.032 0,-0.72 -0.42,-1.14 -0.408,-0.432 -1.116,-0.432 -0.732,0 -1.164,0.444 -0.42,0.432 -0.42,1.176 h -1.08 q 0.036,-1.188 0.756,-1.884 0.72,-0.696 1.908,-0.696 1.212,0 1.92,0.684 0.72,0.684 0.72,1.86 0,0.624 -0.348,1.32 -0.336,0.696 -1.164,1.56 l -2.364,2.472 h 3.984 V 92 Z m 14.472009,2.16 V 85.4 h 1.08 v 1.26 h 0.012 q 0.084,-0.648 0.564,-1.008 0.48,-0.372 1.224,-0.372 0.996,0 1.584,0.66 0.588,0.648 0.588,1.788 v 1.932 q 0,1.14 -0.588,1.8 -0.588,0.66 -1.584,0.66 -0.744,0 -1.224,-0.372 -0.48,-0.372 -0.564,-1.008 h -0.036 l 0.024,1.5 v 1.92 z m 2.52,-2.976 q 0.684,0 1.068,-0.36 0.384,-0.36 0.384,-1.164 v -1.92 q 0,-0.816 -0.384,-1.164 -0.384,-0.36 -1.068,-0.36 -0.66,0 -1.056,0.42 -0.384,0.42 -0.384,1.164 v 1.8 q 0,0.744 0.384,1.164 0.396,0.42 1.056,0.42 z m 6.600005,0.936 q -1.02,0 -1.62,-0.564 -0.6,-0.576 -0.6,-1.5 0,-0.612 0.276,-1.068 0.276,-0.456 0.768,-0.708 0.492,-0.264 1.128,-0.264 h 2.04 V 87.5 q 0,-1.284 -1.404,-1.284 -0.624,0 -1.008,0.228 -0.384,0.228 -0.408,0.636 h -1.08 q 0.06,-0.78 0.72,-1.284 0.672,-0.516 1.776,-0.516 1.2,0 1.836,0.576 0.648,0.576 0.648,1.608 V 92 h -1.068 v -1.2 h -0.024 q -0.096,0.612 -0.612,0.972 -0.516,0.348 -1.368,0.348 z m 0.264,-0.912 q 0.792,0 1.26,-0.384 0.468,-0.384 0.468,-1.044 v -0.924 h -1.92 q -0.528,0 -0.864,0.324 -0.324,0.312 -0.324,0.84 0,0.552 0.36,0.876 0.372,0.312 1.02,0.312 z m 7.608004,0.912 q -1.2,0 -1.92,-0.672 -0.72,-0.672 -0.72,-1.848 v -1.8 q 0,-1.176 0.72,-1.848 0.72,-0.672 1.92,-0.672 1.14,0 1.836,0.612 0.708,0.612 0.744,1.668 h -1.08 q -0.036,-0.636 -0.432,-0.972 -0.396,-0.348 -1.068,-0.348 -0.708,0 -1.14,0.408 -0.42,0.396 -0.42,1.14 V 89.6 q 0,0.744 0.42,1.152 0.432,0.408 1.14,0.408 0.672,0 1.068,-0.348 0.396,-0.348 0.432,-0.972 h 1.08 q -0.036,1.056 -0.744,1.668 -0.696,0.612 -1.836,0.612 z M 71.564032,92 v -8.76 h 1.08 v 4.884 h 1.26 l 1.848,-2.724 h 1.236 l -2.124,3.144 2.244,3.456 h -1.26 l -1.92,-2.94 h -1.284 V 92 Z m 9.060005,0.12 q -1.02,0 -1.62,-0.564 -0.6,-0.576 -0.6,-1.5 0,-0.612 0.276,-1.068 0.276,-0.456 0.768,-0.708 0.492,-0.264 1.128,-0.264 h 2.04 V 87.5 q 0,-1.284 -1.404,-1.284 -0.624,0 -1.008,0.228 -0.384,0.228 -0.408,0.636 h -1.08 q 0.06,-0.78 0.72,-1.284 0.672,-0.516 1.776,-0.516 1.2,0 1.836,0.576 0.648,0.576 0.648,1.608 V 92 h -1.068 v -1.2 h -0.024 q -0.096,0.612 -0.612,0.972 -0.516,0.348 -1.368,0.348 z m 0.264,-0.912 q 0.792,0 1.26,-0.384 0.468,-0.384 0.468,-1.044 v -0.924 h -1.92 q -0.528,0 -0.864,0.324 -0.324,0.312 -0.324,0.84 0,0.552 0.36,0.876 0.372,0.312 1.02,0.312 z m 5.844004,2.952 v -0.984 h 1.86 q 0.564,0 0.888,-0.324 0.324,-0.312 0.324,-0.852 v -0.6 l 0.024,-1.08 h -0.036 q -0.096,0.588 -0.564,0.912 -0.468,0.312 -1.176,0.312 -1.02,0 -1.608,-0.648 -0.588,-0.648 -0.588,-1.776 v -1.392 q 0,-1.128 0.588,-1.788 0.588,-0.66 1.608,-0.66 0.708,0 1.176,0.336 0.468,0.336 0.564,0.924 h 0.024 V 85.4 h 1.068 V 92 q 0,0.996 -0.624,1.572 -0.612,0.588 -1.68,0.588 z m 1.644,-3.516 q 0.672,0 1.056,-0.42 0.384,-0.42 0.384,-1.164 V 87.8 q 0,-0.744 -0.384,-1.164 -0.384,-0.42 -1.056,-0.42 -0.684,0 -1.068,0.396 -0.372,0.396 -0.372,1.068 v 1.5 q 0,0.672 0.372,1.068 0.384,0.396 1.068,0.396 z m 7.224005,1.476 q -1.164,0 -1.884,-0.696 -0.708,-0.708 -0.708,-1.944 v -1.56 q 0,-1.236 0.708,-1.932 0.72,-0.708 1.884,-0.708 0.78,0 1.356,0.312 0.588,0.312 0.912,0.876 0.324,0.564 0.324,1.332 v 1.176 h -4.128 V 89.6 q 0,0.732 0.42,1.164 0.42,0.42 1.116,0.42 0.6,0 0.984,-0.228 0.396,-0.24 0.48,-0.636 h 1.08 q -0.108,0.828 -0.804,1.32 -0.696,0.48 -1.74,0.48 z m -1.536,-3.984 h 3.072 V 87.8 q 0,-0.78 -0.408,-1.2 -0.396,-0.432 -1.128,-0.432 -0.732,0 -1.14,0.432 -0.396,0.42 -0.396,1.2 z m 8.472004,3.96 q -1.104,0 -1.716,-0.492 -0.6,-0.504 -0.6,-1.416 h 1.08 q 0,0.456 0.324,0.72 0.324,0.252 0.912,0.252 h 0.528 q 0.6,0 0.924,-0.264 0.336,-0.264 0.336,-0.744 0,-0.852 -0.78,-0.96 l -1.824,-0.264 q -0.672,-0.096 -1.044,-0.552 -0.372,-0.468 -0.372,-1.224 0,-0.864 0.588,-1.356 0.6,-0.492 1.644,-0.492 h 0.528 q 0.96,0 1.56,0.48 0.612,0.468 0.66,1.236 h -1.092 q -0.024,-0.348 -0.336,-0.576 -0.3,-0.228 -0.792,-0.228 h -0.528 q -0.552,0 -0.864,0.252 -0.312,0.252 -0.312,0.684 0,0.696 0.636,0.792 l 1.704,0.24 q 1.68,0.24 1.68,1.968 0,0.924 -0.612,1.44 -0.6,0.504 -1.704,0.504 z m 14.08801,0.024 q -1.02,0 -1.62,-0.564 -0.6,-0.576 -0.6,-1.5 0,-0.612 0.276,-1.068 0.276,-0.456 0.768,-0.708 0.492,-0.264 1.128,-0.264 h 2.04 V 87.5 q 0,-1.284 -1.404,-1.284 -0.624,0 -1.008,0.228 -0.384,0.228 -0.408,0.636 h -1.08 q 0.06,-0.78 0.72,-1.284 0.672,-0.516 1.776,-0.516 1.2,0 1.836,0.576 0.648,0.576 0.648,1.608 V 92 h -1.068 v -1.2 h -0.024 q -0.096,0.612 -0.612,0.972 -0.516,0.348 -1.368,0.348 z m 0.264,-0.912 q 0.792,0 1.26,-0.384 0.468,-0.384 0.468,-1.044 v -0.924 h -1.92 q -0.528,0 -0.864,0.324 -0.324,0.312 -0.324,0.84 0,0.552 0.36,0.876 0.372,0.312 1.02,0.312 z m 5.256,0.792 v -6.6 h 1.08 v 1.26 h 0.024 q 0.084,-0.636 0.54,-1.008 0.456,-0.372 1.224,-0.372 1.032,0 1.584,0.624 0.564,0.612 0.564,1.752 v 0.564 h -1.08 v -0.564 q 0,-1.44 -1.404,-1.44 -0.708,0 -1.08,0.408 -0.372,0.408 -0.372,1.176 V 92 Z m 9.45601,0.12 q -1.164,0 -1.884,-0.696 -0.708,-0.708 -0.708,-1.944 v -1.56 q 0,-1.236 0.708,-1.932 0.72,-0.708 1.884,-0.708 0.78,0 1.356,0.312 0.588,0.312 0.912,0.876 0.324,0.564 0.324,1.332 v 1.176 h -4.128 V 89.6 q 0,0.732 0.42,1.164 0.42,0.42 1.116,0.42 0.6,0 0.984,-0.228 0.396,-0.24 0.48,-0.636 h 1.08 q -0.108,0.828 -0.804,1.32 -0.696,0.48 -1.74,0.48 z m -1.536,-3.984 h 3.072 V 87.8 q 0,-0.78 -0.408,-1.2 -0.396,-0.432 -1.128,-0.432 -0.732,0 -1.14,0.432 -0.396,0.42 -0.396,1.2 z M 146.96008,92 q -0.876,0 -1.404,-0.504 -0.516,-0.516 -0.516,-1.356 v -5.916 h -2.28 V 83.24 h 3.36 v 6.9 q 0,0.408 0.228,0.648 0.228,0.228 0.612,0.228 h 2.04 V 92 Z m 6.24,0.096 q -1.188,0 -1.896,-0.696 -0.696,-0.696 -0.696,-1.944 v -1.512 q 0,-1.26 0.696,-1.944 0.696,-0.696 1.896,-0.696 1.2,0 1.896,0.696 0.696,0.684 0.696,1.944 v 1.512 q 0,1.248 -0.708,1.944 -0.696,0.696 -1.884,0.696 z m 0,-0.96 q 0.708,0 1.104,-0.396 0.408,-0.396 0.408,-1.164 v -1.752 q 0,-0.768 -0.408,-1.164 -0.396,-0.396 -1.104,-0.396 -0.696,0 -1.104,0.396 -0.408,0.396 -0.408,1.164 v 1.752 q 0,0.768 0.408,1.164 0.408,0.396 1.104,0.396 z m 7.2,0.96 q -1.188,0 -1.896,-0.696 -0.696,-0.696 -0.696,-1.944 v -1.512 q 0,-1.26 0.696,-1.944 0.696,-0.696 1.896,-0.696 1.2,0 1.896,0.696 0.696,0.684 0.696,1.944 v 1.512 q 0,1.248 -0.708,1.944 -0.696,0.696 -1.884,0.696 z m 0,-0.96 q 0.708,0 1.104,-0.396 0.408,-0.396 0.408,-1.164 v -1.752 q 0,-0.768 -0.408,-1.164 -0.396,-0.396 -1.104,-0.396 -0.696,0 -1.104,0.396 -0.408,0.396 -0.408,1.164 v 1.752 q 0,0.768 0.408,1.164 0.408,0.396 1.104,0.396 z M 165.16409,92 v -8.76 h 1.08 v 4.884 h 1.26 l 1.848,-2.724 h 1.236 l -2.124,3.144 2.244,3.456 h -1.26 l -1.92,-2.94 h -1.284 V 92 Z m 7.05601,0 v -0.984 h 2.34 v -4.632 h -2.1 V 85.4 h 3.18 v 5.616 h 2.22 V 92 Z m 2.76,-7.788 q -0.396,0 -0.624,-0.204 -0.228,-0.204 -0.228,-0.552 0,-0.36 0.228,-0.564 0.228,-0.216 0.624,-0.216 0.396,0 0.624,0.216 0.228,0.204 0.228,0.564 0,0.348 -0.228,0.552 -0.228,0.204 -0.624,0.204 z m 4.524,7.788 v -6.6 h 1.08 v 1.26 h 0.012 q 0.084,-0.66 0.54,-1.02 0.456,-0.36 1.212,-0.36 0.996,0 1.584,0.612 0.588,0.612 0.588,1.668 V 92 h -1.08 v -4.248 q 0,-0.756 -0.384,-1.152 -0.372,-0.408 -1.02,-0.408 -0.672,0 -1.068,0.42 -0.384,0.42 -0.384,1.188 V 92 Z m 8.028,2.16 v -0.984 h 1.86 q 0.564,0 0.888,-0.324 0.324,-0.312 0.324,-0.852 v -0.6 l 0.024,-1.08 h -0.036 q -0.096,0.588 -0.564,0.912 -0.468,0.312 -1.176,0.312 -1.02,0 -1.608,-0.648 -0.588,-0.648 -0.588,-1.776 v -1.392 q 0,-1.128 0.588,-1.788 0.588,-0.66 1.608,-0.66 0.708,0 1.176,0.336 0.468,0.336 0.564,0.924 h 0.024 V 85.4 h 1.068 V 92 q 0,0.996 -0.624,1.572 -0.612,0.588 -1.68,0.588 z m 1.644,-3.516 q 0.672,0 1.056,-0.42 0.384,-0.42 0.384,-1.164 V 87.8 q 0,-0.744 -0.384,-1.164 -0.384,-0.42 -1.056,-0.42 -0.684,0 -1.068,0.396 -0.372,0.396 -0.372,1.068 v 1.5 q 0,0.672 0.372,1.068 0.384,0.396 1.068,0.396 z M 202.58012,92 v -4.716 h -1.92 V 86.3 h 1.92 v -1.38 q 0,-0.78 0.492,-1.224 0.492,-0.456 1.356,-0.456 h 1.932 v 0.984 h -1.932 q -0.768,0 -0.768,0.696 v 1.38 h 2.7 v 0.984 h -2.7 V 92 Z m 8.22,0.096 q -1.188,0 -1.896,-0.696 -0.696,-0.696 -0.696,-1.944 v -1.512 q 0,-1.26 0.696,-1.944 0.696,-0.696 1.896,-0.696 1.2,0 1.896,0.696 0.696,0.684 0.696,1.944 v 1.512 q 0,1.248 -0.708,1.944 -0.696,0.696 -1.884,0.696 z m 0,-0.96 q 0.708,0 1.104,-0.396 0.408,-0.396 0.408,-1.164 v -1.752 q 0,-0.768 -0.408,-1.164 -0.396,-0.396 -1.104,-0.396 -0.696,0 -1.104,0.396 -0.408,0.396 -0.408,1.164 v 1.752 q 0,0.768 0.408,1.164 0.408,0.396 1.104,0.396 z m 4.944,0.864 v -6.6 h 1.08 v 1.26 h 0.024 q 0.084,-0.636 0.54,-1.008 0.456,-0.372 1.224,-0.372 1.032,0 1.584,0.624 0.564,0.612 0.564,1.752 v 0.564 h -1.08 v -0.564 q 0,-1.44 -1.404,-1.44 -0.708,0 -1.08,0.408 -0.372,0.408 -0.372,1.176 V 92 Z m 15.63602,0 v -4.716 h -1.92 V 86.3 h 1.92 v -1.38 q 0,-0.78 0.492,-1.224 0.492,-0.456 1.356,-0.456 h 1.932 v 0.984 h -1.932 q -0.768,0 -0.768,0.696 v 1.38 h 2.7 v 0.984 h -2.7 V 92 Z m 8.208,0.12 q -1.14,0 -1.824,-0.672 -0.684,-0.684 -0.684,-1.848 v -4.2 h 1.08 v 4.2 q 0,0.72 0.384,1.152 0.384,0.42 1.044,0.42 0.672,0 1.056,-0.42 0.396,-0.432 0.396,-1.152 v -4.2 h 1.08 v 4.2 q 0,1.164 -0.696,1.848 -0.696,0.672 -1.836,0.672 z M 244.30413,92 v -6.6 h 1.08 v 1.26 h 0.012 q 0.084,-0.66 0.54,-1.02 0.456,-0.36 1.212,-0.36 0.996,0 1.584,0.612 0.588,0.612 0.588,1.668 V 92 h -1.08 v -4.248 q 0,-0.756 -0.384,-1.152 -0.372,-0.408 -1.02,-0.408 -0.672,0 -1.068,0.42 -0.384,0.42 -0.384,1.188 V 92 Z m 9.31202,0.12 q -0.984,0 -1.584,-0.66 -0.588,-0.66 -0.588,-1.788 V 87.74 q 0,-1.14 0.588,-1.8 0.588,-0.66 1.584,-0.66 0.744,0 1.224,0.372 0.492,0.372 0.588,1.008 h 0.012 l -0.024,-1.5 v -1.92 h 1.08 V 92 h -1.08 v -1.26 h -0.012 q -0.084,0.648 -0.564,1.02 -0.48,0.36 -1.224,0.36 z m 0.36,-0.936 q 0.672,0 1.056,-0.42 0.384,-0.42 0.384,-1.164 v -1.8 q 0,-0.744 -0.384,-1.164 -0.384,-0.42 -1.056,-0.42 -0.684,0 -1.068,0.36 -0.384,0.348 -0.384,1.164 v 1.92 q 0,0.804 0.384,1.164 0.384,0.36 1.068,0.36 z M 258.62016,92 v -0.984 h 2.34 v -4.632 h -2.1 V 85.4 h 3.18 v 5.616 h 2.22 V 92 Z m 2.76,-7.788 q -0.396,0 -0.624,-0.204 -0.228,-0.204 -0.228,-0.552 0,-0.36 0.228,-0.564 0.228,-0.216 0.624,-0.216 0.396,0 0.624,0.216 0.228,0.204 0.228,0.564 0,0.348 -0.228,0.552 -0.228,0.204 -0.624,0.204 z m 4.524,7.788 v -6.6 h 1.08 v 1.26 h 0.012 q 0.084,-0.66 0.54,-1.02 0.456,-0.36 1.212,-0.36 0.996,0 1.584,0.612 0.588,0.612 0.588,1.668 V 92 h -1.08 v -4.248 q 0,-0.756 -0.384,-1.152 -0.372,-0.408 -1.02,-0.408 -0.672,0 -1.068,0.42 -0.384,0.42 -0.384,1.188 V 92 Z m 8.02799,2.16 v -0.984 h 1.86 q 0.564,0 0.888,-0.324 0.324,-0.312 0.324,-0.852 v -0.6 l 0.024,-1.08 h -0.036 q -0.096,0.588 -0.564,0.912 -0.468,0.312 -1.176,0.312 -1.02,0 -1.608,-0.648 -0.588,-0.648 -0.588,-1.776 v -1.392 q 0,-1.128 0.588,-1.788 0.588,-0.66 1.608,-0.66 0.708,0 1.176,0.336 0.468,0.336 0.564,0.924 h 0.024 V 85.4 h 1.068 V 92 q 0,0.996 -0.624,1.572 -0.612,0.588 -1.68,0.588 z m 1.644,-3.516 q 0.672,0 1.056,-0.42 0.384,-0.42 0.384,-1.164 V 87.8 q 0,-0.744 -0.384,-1.164 -0.384,-0.42 -1.056,-0.42 -0.684,0 -1.068,0.396 -0.372,0.396 -0.372,1.068 v 1.5 q 0,0.672 0.372,1.068 0.384,0.396 1.068,0.396 z"
       id="text7"
       aria-label="142 packages are looking for funding" />
    <path
       d="m 35.744009,106.4 v -6.599998 h 1.08 V 101.06 h 0.024 q 0.084,-0.636 0.54,-1.008 0.456,-0.371998 1.224,-0.371998 1.032,0 1.584,0.623998 0.564,0.612 0.564,1.752 v 0.564 h -1.08 v -0.564 q 0,-1.44 -1.404,-1.44 -0.708,0 -1.08,0.408 -0.372,0.408 -0.372,1.176 v 4.2 z m 9.444005,0.12 q -1.14,0 -1.824,-0.672 -0.684,-0.684 -0.684,-1.848 v -4.199998 h 1.08 V 104 q 0,0.72 0.384,1.152 0.384,0.42 1.044,0.42 0.672,0 1.056,-0.42 0.396,-0.432 0.396,-1.152 v -4.199998 h 1.08 V 104 q 0,1.164 -0.696,1.848 -0.696,0.672 -1.836,0.672 z m 4.716004,-0.12 v -6.599998 h 1.08 V 101.06 h 0.012 q 0.084,-0.66 0.54,-1.02 0.456,-0.359998 1.212,-0.359998 0.996,0 1.584,0.611998 0.588,0.612 0.588,1.668 v 4.44 h -1.08 v -4.248 q 0,-0.756 -0.384,-1.152 -0.372,-0.408 -1.02,-0.408 -0.672,0 -1.068,0.42 -0.384,0.42 -0.384,1.188 v 4.2 z m 16.620009,-7.739998 -1.38,-1.68 h 1.2 l 1.32,1.68 z M 71.504032,106.4 v -6.599998 h 1.08 V 101.06 h 0.012 q 0.084,-0.66 0.54,-1.02 0.456,-0.359998 1.212,-0.359998 0.996,0 1.584,0.611998 0.588,0.612 0.588,1.668 v 4.44 h -1.08 v -4.248 q 0,-0.756 -0.384,-1.152 -0.372,-0.408 -1.02,-0.408 -0.672,0 -1.068,0.42 -0.384,0.42 -0.384,1.188 v 4.2 z m 7.200005,2.16 v -8.759998 h 1.08 V 101.06 h 0.012 q 0.084,-0.648 0.564,-1.008 0.48,-0.371998 1.224,-0.371998 0.996,0 1.584,0.659998 0.588,0.648 0.588,1.788 v 1.932 q 0,1.14 -0.588,1.8 -0.588,0.66 -1.584,0.66 -0.744,0 -1.224,-0.372 -0.48,-0.372 -0.564,-1.008 h -0.036 l 0.024,1.5 v 1.92 z m 2.52,-2.976 q 0.684,0 1.068,-0.36 0.384,-0.36 0.384,-1.164 v -1.92 q 0,-0.816 -0.384,-1.164 -0.384,-0.36 -1.068,-0.36 -0.66,0 -1.056,0.42 -0.384,0.42 -0.384,1.164 v 1.8 q 0,0.744 0.384,1.164 0.396,0.42 1.056,0.42 z m 4.296004,0.816 v -6.599998 h 0.936 V 100.676 h 0.024 q 0.06,-0.444 0.348,-0.719998 0.3,-0.276 0.756,-0.276 0.432,0 0.732,0.252 0.3,0.251998 0.432,0.683998 h 0.012 q 0.084,-0.432 0.372,-0.683998 0.3,-0.252 0.756,-0.252 0.636,0 1.008,0.479998 0.384,0.468 0.384,1.224 v 5.016 h -1.008 v -5.028 q 0,-0.396 -0.192,-0.624 -0.192,-0.24 -0.528,-0.24 -0.324,0 -0.516,0.228 -0.192,0.228 -0.192,0.624 v 5.04 h -0.888 v -5.028 q 0,-0.396 -0.192,-0.624 -0.192,-0.24 -0.516,-0.24 -0.336,0 -0.528,0.228 -0.192,0.228 -0.192,0.624 v 5.04 z m 16.260009,0 v -4.716 h -1.92 V 100.7 h 1.92 v -1.379998 q 0,-0.78 0.492,-1.224 0.492,-0.456 1.356,-0.456 h 1.932 v 0.984 h -1.932 q -0.768,0 -0.768,0.696 V 100.7 h 2.7 v 0.984 h -2.7 v 4.716 z m 8.208,0.12 q -1.14,0 -1.824,-0.672 -0.684,-0.684 -0.684,-1.848 v -4.199998 h 1.08 V 104 q 0,0.72 0.384,1.152 0.384,0.42 1.044,0.42 0.672,0 1.056,-0.42 0.396,-0.432 0.396,-1.152 v -4.199998 h 1.08 V 104 q 0,1.164 -0.696,1.848 -0.696,0.672 -1.836,0.672 z m 4.71601,-0.12 v -6.599998 h 1.08 V 101.06 h 0.012 q 0.084,-0.66 0.54,-1.02 0.456,-0.359998 1.212,-0.359998 0.996,0 1.584,0.611998 0.588,0.612 0.588,1.668 v 4.44 h -1.08 v -4.248 q 0,-0.756 -0.384,-1.152 -0.372,-0.408 -1.02,-0.408 -0.672,0 -1.068,0.42 -0.384,0.42 -0.384,1.188 v 4.2 z m 9.312,0.12 q -0.984,0 -1.584,-0.66 -0.588,-0.66 -0.588,-1.788 v -1.932 q 0,-1.14 0.588,-1.8 0.588,-0.659998 1.584,-0.659998 0.744,0 1.224,0.371998 0.492,0.372 0.588,1.008 h 0.012 l -0.024,-1.499998 v -1.92 h 1.08 V 106.4 h -1.08 v -1.26 h -0.012 q -0.084,0.648 -0.564,1.02 -0.48,0.36 -1.224,0.36 z m 0.36,-0.936 q 0.672,0 1.056,-0.42 0.384,-0.42 0.384,-1.164 v -1.8 q 0,-0.744 -0.384,-1.164 -0.384,-0.42 -1.056,-0.42 -0.684,0 -1.068,0.36 -0.384,0.348 -0.384,1.164 v 1.92 q 0,0.804 0.384,1.164 0.384,0.36 1.068,0.36 z m 6.94801,-6.923998 -1.38,-1.68 h 1.2 l 1.32,1.68 z M 144.98008,106.4 v -4.716 h -1.92 V 100.7 h 1.92 v -1.379998 q 0,-0.78 0.492,-1.224 0.492,-0.456 1.356,-0.456 h 1.932 v 0.984 h -1.932 q -0.768,0 -0.768,0.696 V 100.7 h 2.7 v 0.984 h -2.7 v 4.716 z m 8.22,0.096 q -1.188,0 -1.896,-0.696 -0.696,-0.696 -0.696,-1.944 v -1.512 q 0,-1.26 0.696,-1.944 0.696,-0.695998 1.896,-0.695998 1.2,0 1.896,0.695998 0.696,0.684 0.696,1.944 v 1.512 q 0,1.248 -0.708,1.944 -0.696,0.696 -1.884,0.696 z m 0,-0.96 q 0.708,0 1.104,-0.396 0.408,-0.396 0.408,-1.164 v -1.752 q 0,-0.768 -0.408,-1.164 -0.396,-0.396 -1.104,-0.396 -0.696,0 -1.104,0.396 -0.408,0.396 -0.408,1.164 v 1.752 q 0,0.768 0.408,1.164 0.408,0.396 1.104,0.396 z m 4.944,0.864 v -6.599998 h 1.08 V 101.06 h 0.024 q 0.084,-0.636 0.54,-1.008 0.456,-0.371998 1.224,-0.371998 1.032,0 1.584,0.623998 0.564,0.612 0.564,1.752 v 0.564 h -1.08 v -0.564 q 0,-1.44 -1.404,-1.44 -0.708,0 -1.08,0.408 -0.372,0.408 -0.372,1.176 v 4.2 z m 16.27202,0.12 q -0.984,0 -1.584,-0.66 -0.588,-0.66 -0.588,-1.788 v -1.932 q 0,-1.14 0.588,-1.8 0.588,-0.659998 1.584,-0.659998 0.744,0 1.224,0.371998 0.492,0.372 0.588,1.008 h 0.012 l -0.024,-1.499998 v -1.92 h 1.08 V 106.4 h -1.08 v -1.26 h -0.012 q -0.084,0.648 -0.564,1.02 -0.48,0.36 -1.224,0.36 z m 0.36,-0.936 q 0.672,0 1.056,-0.42 0.384,-0.42 0.384,-1.164 v -1.8 q 0,-0.744 -0.384,-1.164 -0.384,-0.42 -1.056,-0.42 -0.684,0 -1.068,0.36 -0.384,0.348 -0.384,1.164 v 1.92 q 0,0.804 0.384,1.164 0.384,0.36 1.068,0.36 z m 7.224,0.936 q -1.164,0 -1.884,-0.696 -0.708,-0.708 -0.708,-1.944 v -1.56 q 0,-1.236 0.708,-1.932 0.72,-0.707998 1.884,-0.707998 0.78,0 1.356,0.312 0.588,0.311998 0.912,0.875998 0.324,0.564 0.324,1.332 v 1.176 h -4.128 V 104 q 0,0.732 0.42,1.164 0.42,0.42 1.116,0.42 0.6,0 0.984,-0.228 0.396,-0.24 0.48,-0.636 h 1.08 q -0.108,0.828 -0.804,1.32 -0.696,0.48 -1.74,0.48 z m -1.536,-3.984 h 3.072 V 102.2 q 0,-0.78 -0.408,-1.2 -0.396,-0.432 -1.128,-0.432 -0.732,0 -1.14,0.432 -0.396,0.42 -0.396,1.2 z m 9.396,3.864 q -0.816,0 -1.308,-0.468 -0.492,-0.48 -0.492,-1.272 v -3.876 h -1.896 v -0.983998 h 1.896 v -1.86 h 1.08 v 1.86 h 2.7 V 100.784 h -2.7 v 3.876 q 0,0.336 0.192,0.552 0.204,0.204 0.528,0.204 h 1.92 v 0.984 z m 5.96401,0.12 q -1.02,0 -1.62,-0.564 -0.6,-0.576 -0.6,-1.5 0,-0.612 0.276,-1.068 0.276,-0.456 0.768,-0.708 0.492,-0.264 1.128,-0.264 h 2.04 V 101.9 q 0,-1.284 -1.404,-1.284 -0.624,0 -1.008,0.228 -0.384,0.228 -0.408,0.636 h -1.08 q 0.06,-0.78 0.72,-1.284 0.672,-0.515998 1.776,-0.515998 1.2,0 1.836,0.575998 0.648,0.576 0.648,1.608 v 4.536 h -1.068 v -1.2 h -0.024 q -0.096,0.612 -0.612,0.972 -0.516,0.348 -1.368,0.348 z m 0.264,-0.912 q 0.792,0 1.26,-0.384 0.468,-0.384 0.468,-1.044 v -0.924 h -1.92 q -0.528,0 -0.864,0.324 -0.324,0.312 -0.324,0.84 0,0.552 0.36,0.876 0.372,0.312 1.02,0.312 z m 4.93201,0.792 v -0.984 h 2.34 v -4.632 h -2.1 v -0.983998 h 3.18 V 105.416 h 2.22 v 0.984 z m 2.76,-7.787998 q -0.396,0 -0.624,-0.204 -0.228,-0.204 -0.228,-0.552 0,-0.36 0.228,-0.564 0.228,-0.216 0.624,-0.216 0.396,0 0.624,0.216 0.228,0.204 0.228,0.564 0,0.348 -0.228,0.552 -0.228,0.204 -0.624,0.204 z m 7.98,7.787998 q -0.876,0 -1.404,-0.504 -0.516,-0.516 -0.516,-1.356 v -5.915998 h -2.28 v -0.984 h 3.36 V 104.54 q 0,0.408 0.228,0.648 0.228,0.228 0.612,0.228 h 2.04 v 0.984 z m 5.976,0.096 q -1.104,0 -1.716,-0.492 -0.6,-0.504 -0.6,-1.416 h 1.08 q 0,0.456 0.324,0.72 0.324,0.252 0.912,0.252 h 0.528 q 0.6,0 0.924,-0.264 0.336,-0.264 0.336,-0.744 0,-0.852 -0.78,-0.96 l -1.824,-0.264 q -0.672,-0.096 -1.044,-0.552 -0.372,-0.468 -0.372,-1.224 0,-0.864 0.588,-1.356 0.6,-0.491998 1.644,-0.491998 h 0.528 q 0.96,0 1.56,0.479998 0.612,0.468 0.66,1.236 h -1.092 q -0.024,-0.348 -0.336,-0.576 -0.3,-0.228 -0.792,-0.228 h -0.528 q -0.552,0 -0.864,0.252 -0.312,0.252 -0.312,0.684 0,0.696 0.636,0.792 l 1.704,0.24 q 1.68,0.24 1.68,1.968 0,0.924 -0.612,1.44 -0.6,0.504 -1.704,0.504 z"
       id="text8"
       aria-label="  run `npm fund` for details" />
    <text
       x="20"
       y="120.8"
       xml:space="preserve"
       id="text9" />
    <g
       id="text12"
       aria-label="found 0 vulnerabilities">
      <path
         d="m 22.58,135.2 v -4.716 H 20.66 V 129.5 h 1.92 v -1.38 q 0,-0.78 0.492,-1.224 0.492,-0.456 1.356,-0.456 h 1.932 v 0.984 h -1.932 q -0.768,0 -0.768,0.696 v 1.38 h 2.7 v 0.984 h -2.7 v 4.716 z m 8.220005,0.096 q -1.188,0 -1.896,-0.696 -0.696,-0.696 -0.696,-1.944 v -1.512 q 0,-1.26 0.696,-1.944 0.696,-0.696 1.896,-0.696 1.2,0 1.896,0.696 0.696,0.684 0.696,1.944 v 1.512 q 0,1.248 -0.708,1.944 -0.696,0.696 -1.884,0.696 z m 0,-0.96 q 0.708,0 1.104,-0.396 0.408,-0.396 0.408,-1.164 v -1.752 q 0,-0.768 -0.408,-1.164 -0.396,-0.396 -1.104,-0.396 -0.696,0 -1.104,0.396 -0.408,0.396 -0.408,1.164 v 1.752 q 0,0.768 0.408,1.164 0.408,0.396 1.104,0.396 z m 7.188004,0.984 q -1.14,0 -1.824,-0.672 -0.684,-0.684 -0.684,-1.848 v -4.2 h 1.08 v 4.2 q 0,0.72 0.384,1.152 0.384,0.42 1.044,0.42 0.672,0 1.056,-0.42 0.396,-0.432 0.396,-1.152 v -4.2 h 1.08 v 4.2 q 0,1.164 -0.696,1.848 -0.696,0.672 -1.836,0.672 z m 4.716005,-0.12 v -6.6 h 1.08 v 1.26 h 0.012 q 0.084,-0.66 0.54,-1.02 0.456,-0.36 1.212,-0.36 0.996,0 1.584,0.612 0.588,0.612 0.588,1.668 v 4.44 h -1.08 v -4.248 q 0,-0.756 -0.384,-1.152 -0.372,-0.408 -1.02,-0.408 -0.672,0 -1.068,0.42 -0.384,0.42 -0.384,1.188 v 4.2 z m 9.312004,0.12 q -0.984,0 -1.584,-0.66 -0.588,-0.66 -0.588,-1.788 v -1.932 q 0,-1.14 0.588,-1.8 0.588,-0.66 1.584,-0.66 0.744,0 1.224,0.372 0.492,0.372 0.588,1.008 h 0.012 l -0.024,-1.5 v -1.92 h 1.08 v 8.76 h -1.08 v -1.26 h -0.012 q -0.084,0.648 -0.564,1.02 -0.48,0.36 -1.224,0.36 z m 0.36,-0.936 q 0.672,0 1.056,-0.42 0.384,-0.42 0.384,-1.164 V 131 q 0,-0.744 -0.384,-1.164 -0.384,-0.42 -1.056,-0.42 -0.684,0 -1.068,0.36 -0.384,0.348 -0.384,1.164 v 1.92 q 0,0.804 0.384,1.164 0.384,0.36 1.068,0.36 z"
         id="path15" />
      <path
         style="fill:#31bb71"
         d="m 66.800027,135.32 q -1.212,0 -1.932,-0.696 -0.708,-0.708 -0.708,-1.884 v -3.84 q 0,-1.176 0.708,-1.872 0.72,-0.708 1.932,-0.708 1.212,0 1.92,0.708 0.72,0.696 0.72,1.872 v 3.84 q 0,0.78 -0.324,1.368 -0.324,0.576 -0.924,0.9 -0.588,0.312 -1.392,0.312 z m 0,-0.924 q 0.72,0 1.152,-0.456 0.444,-0.468 0.444,-1.2 v -3.84 q 0,-0.732 -0.444,-1.188 -0.432,-0.468 -1.152,-0.468 -0.72,0 -1.164,0.468 -0.432,0.456 -0.432,1.188 v 3.84 q 0,0.732 0.432,1.2 0.444,0.456 1.164,0.456 z m 0,-2.916 q -0.324,0 -0.528,-0.18 -0.192,-0.18 -0.192,-0.516 0,-0.324 0.192,-0.492 0.204,-0.18 0.528,-0.18 0.324,0 0.516,0.18 0.204,0.168 0.204,0.492 0,0.336 -0.204,0.516 -0.192,0.18 -0.516,0.18 z"
         id="path16" />
      <path
         d="m 80.492037,135.2 -2.244,-6.6 h 1.164 l 1.44,4.44 q 0.132,0.396 0.228,0.768 0.096,0.36 0.144,0.564 0.06,-0.204 0.144,-0.564 0.084,-0.372 0.204,-0.768 l 1.44,-4.44 h 1.14 l -2.244,6.6 z m 7.896004,0.12 q -1.14,0 -1.824,-0.672 -0.684,-0.684 -0.684,-1.848 v -4.2 h 1.08 v 4.2 q 0,0.72 0.384,1.152 0.384,0.42 1.044,0.42 0.672,0 1.056,-0.42 0.396,-0.432 0.396,-1.152 v -4.2 h 1.08 v 4.2 q 0,1.164 -0.696,1.848 -0.696,0.672 -1.836,0.672 z m 8.172005,-0.12 q -0.876,0 -1.404,-0.504 -0.516,-0.516 -0.516,-1.356 v -5.916 h -2.28 v -0.984 h 3.36 v 6.9 q 0,0.408 0.228,0.648 0.228,0.228 0.612,0.228 h 2.04 v 0.984 z m 3.744004,0 v -6.6 h 1.08 v 1.26 h 0.012 q 0.084,-0.66 0.54,-1.02 0.456,-0.36 1.212,-0.36 0.996,0 1.584,0.612 0.588,0.612 0.588,1.668 v 4.44 h -1.08 v -4.248 q 0,-0.756 -0.384,-1.152 -0.372,-0.408 -1.02,-0.408 -0.672,0 -1.068,0.42 -0.384,0.42 -0.384,1.188 v 4.2 z m 9.696,0.12 q -1.164,0 -1.884,-0.696 -0.708,-0.708 -0.708,-1.944 v -1.56 q 0,-1.236 0.708,-1.932 0.72,-0.708 1.884,-0.708 0.78,0 1.356,0.312 0.588,0.312 0.912,0.876 0.324,0.564 0.324,1.332 v 1.176 h -4.128 v 0.624 q 0,0.732 0.42,1.164 0.42,0.42 1.116,0.42 0.6,0 0.984,-0.228 0.396,-0.24 0.48,-0.636 h 1.08 q -0.108,0.828 -0.804,1.32 -0.696,0.48 -1.74,0.48 z m -1.536,-3.984 h 3.072 V 131 q 0,-0.78 -0.408,-1.2 -0.396,-0.432 -1.128,-0.432 -0.732,0 -1.14,0.432 -0.396,0.42 -0.396,1.2 z m 6.48001,3.864 v -6.6 h 1.08 v 1.26 h 0.024 q 0.084,-0.636 0.54,-1.008 0.456,-0.372 1.224,-0.372 1.032,0 1.584,0.624 0.564,0.612 0.564,1.752 v 0.564 h -1.08 v -0.564 q 0,-1.44 -1.404,-1.44 -0.708,0 -1.08,0.408 -0.372,0.408 -0.372,1.176 v 4.2 z m 8.88,0.12 q -1.02,0 -1.62,-0.564 -0.6,-0.576 -0.6,-1.5 0,-0.612 0.276,-1.068 0.276,-0.456 0.768,-0.708 0.492,-0.264 1.128,-0.264 h 2.04 V 130.7 q 0,-1.284 -1.404,-1.284 -0.624,0 -1.008,0.228 -0.384,0.228 -0.408,0.636 h -1.08 q 0.06,-0.78 0.72,-1.284 0.672,-0.516 1.776,-0.516 1.2,0 1.836,0.576 0.648,0.576 0.648,1.608 v 4.536 h -1.068 V 134 h -0.024 q -0.096,0.612 -0.612,0.972 -0.516,0.348 -1.368,0.348 z m 0.264,-0.912 q 0.792,0 1.26,-0.384 0.468,-0.384 0.468,-1.044 v -0.924 h -1.92 q -0.528,0 -0.864,0.324 -0.324,0.312 -0.324,0.84 0,0.552 0.36,0.876 0.372,0.312 1.02,0.312 z m 7.89601,0.912 q -0.744,0 -1.224,-0.36 -0.48,-0.372 -0.564,-1.02 h -0.012 v 1.26 h -1.08 v -8.76 h 1.08 v 1.92 l -0.024,1.5 h 0.012 q 0.096,-0.636 0.576,-1.008 0.492,-0.372 1.236,-0.372 0.996,0 1.584,0.66 0.588,0.66 0.588,1.8 v 1.932 q 0,1.128 -0.588,1.788 -0.588,0.66 -1.584,0.66 z m -0.36,-0.936 q 0.684,0 1.068,-0.36 0.384,-0.36 0.384,-1.164 v -1.92 q 0,-0.816 -0.384,-1.164 -0.384,-0.36 -1.068,-0.36 -0.66,0 -1.056,0.42 -0.384,0.42 -0.384,1.164 v 1.8 q 0,0.744 0.384,1.164 0.396,0.42 1.056,0.42 z m 4.596,0.816 v -0.984 h 2.34 v -4.632 h -2.1 V 128.6 h 3.18 v 5.616 h 2.22 v 0.984 z m 2.76,-7.788 q -0.396,0 -0.624,-0.204 -0.228,-0.204 -0.228,-0.552 0,-0.36 0.228,-0.564 0.228,-0.216 0.624,-0.216 0.396,0 0.624,0.216 0.228,0.204 0.228,0.564 0,0.348 -0.228,0.552 -0.228,0.204 -0.624,0.204 z m 7.98001,7.788 q -0.876,0 -1.404,-0.504 -0.516,-0.516 -0.516,-1.356 v -5.916 h -2.28 v -0.984 h 3.36 v 6.9 q 0,0.408 0.228,0.648 0.228,0.228 0.612,0.228 h 2.04 v 0.984 z m 3.66,0 v -0.984 h 2.34 v -4.632 h -2.1 V 128.6 h 3.18 v 5.616 h 2.22 v 0.984 z m 2.76,-7.788 q -0.396,0 -0.624,-0.204 -0.228,-0.204 -0.228,-0.552 0,-0.36 0.228,-0.564 0.228,-0.216 0.624,-0.216 0.396,0 0.624,0.216 0.228,0.204 0.228,0.564 0,0.348 -0.228,0.552 -0.228,0.204 -0.624,0.204 z m 7.68,7.788 q -0.816,0 -1.308,-0.468 -0.492,-0.48 -0.492,-1.272 v -3.876 h -1.896 V 128.6 h 1.896 v -1.86 h 1.08 v 1.86 h 2.7 v 0.984 h -2.7 v 3.876 q 0,0.336 0.192,0.552 0.204,0.204 0.528,0.204 h 1.92 v 0.984 z m 3.96001,0 v -0.984 h 2.34 v -4.632 h -2.1 V 128.6 h 3.18 v 5.616 h 2.22 v 0.984 z m 2.76,-7.788 q -0.396,0 -0.624,-0.204 -0.228,-0.204 -0.228,-0.552 0,-0.36 0.228,-0.564 0.228,-0.216 0.624,-0.216 0.396,0 0.624,0.216 0.228,0.204 0.228,0.564 0,0.348 -0.228,0.552 -0.228,0.204 -0.624,0.204 z m 7.02001,7.908 q -1.164,0 -1.884,-0.696 -0.708,-0.708 -0.708,-1.944 v -1.56 q 0,-1.236 0.708,-1.932 0.72,-0.708 1.884,-0.708 0.78,0 1.356,0.312 0.588,0.312 0.912,0.876 0.324,0.564 0.324,1.332 v 1.176 h -4.128 v 0.624 q 0,0.732 0.42,1.164 0.42,0.42 1.116,0.42 0.6,0 0.984,-0.228 0.396,-0.24 0.48,-0.636 h 1.08 q -0.108,0.828 -0.804,1.32 -0.696,0.48 -1.74,0.48 z m -1.536,-3.984 h 3.072 V 131 q 0,-0.78 -0.408,-1.2 -0.396,-0.432 -1.128,-0.432 -0.732,0 -1.14,0.432 -0.396,0.42 -0.396,1.2 z m 8.472,3.96 q -1.104,0 -1.716,-0.492 -0.6,-0.504 -0.6,-1.416 h 1.08 q 0,0.456 0.324,0.72 0.324,0.252 0.912,0.252 h 0.528 q 0.6,0 0.924,-0.264 0.336,-0.264 0.336,-0.744 0,-0.852 -0.78,-0.96 l -1.824,-0.264 q -0.672,-0.096 -1.044,-0.552 -0.372,-0.468 -0.372,-1.224 0,-0.864 0.588,-1.356 0.6,-0.492 1.644,-0.492 h 0.528 q 0.96,0 1.56,0.48 0.612,0.468 0.66,1.236 h -1.092 q -0.024,-0.348 -0.336,-0.576 -0.3,-0.228 -0.792,-0.228 h -0.528 q -0.552,0 -0.864,0.252 -0.312,0.252 -0.312,0.684 0,0.696 0.636,0.792 l 1.704,0.24 q 1.68,0.24 1.68,1.968 0,0.924 -0.612,1.44 -0.6,0.504 -1.704,0.504 z"
         id="path17" />
    </g>
  </g>
</svg>
